<svg width="18" height="16" viewBox="0 0 18 16" fill="none" xmlns="http://www.w3.org/2000/svg">
<path d="M8.7801 11.2163C8.6228 11.2163 8.46903 11.2631 8.33823 11.3507C8.20744 11.4383 8.1055 11.5628 8.04531 11.7085C7.98511 11.8542 7.96936 12.0145 8.00005 12.1691C8.03074 12.3238 8.10648 12.4658 8.21771 12.5773C8.32894 12.6888 8.47066 12.7648 8.62494 12.7955C8.77922 12.8263 8.93913 12.8105 9.08446 12.7502C9.22979 12.6898 9.354 12.5876 9.44139 12.4565C9.52879 12.3254 9.57543 12.1713 9.57543 12.0136C9.57543 11.8021 9.49164 11.5994 9.34248 11.4498C9.19333 11.3003 8.99103 11.2163 8.7801 11.2163ZM17.2663 12.3883L10.8639 1.22669C10.6569 0.854777 10.3547 0.544997 9.98836 0.329347C9.62204 0.113698 9.20492 0 8.7801 0C8.35528 0 7.93816 0.113698 7.57183 0.329347C7.20551 0.544997 6.90327 0.854777 6.69632 1.22669L0.333657 12.3883C0.11955 12.7503 0.0045023 13.1625 0.000129481 13.5833C-0.00424334 14.004 0.102213 14.4185 0.308752 14.7849C0.51529 15.1513 0.814599 15.4565 1.17646 15.6698C1.53832 15.8832 1.94992 15.997 2.36971 15.9999H15.1905C15.6136 16.0041 16.0303 15.8954 16.3977 15.6849C16.7652 15.4744 17.0701 15.1698 17.2814 14.8023C17.4927 14.4347 17.6026 14.0174 17.6 13.5932C17.5973 13.169 17.4821 12.7532 17.2663 12.3883ZM15.8904 13.9828C15.8207 14.1072 15.719 14.2105 15.5959 14.282C15.4728 14.3535 15.3328 14.3906 15.1905 14.3894H2.36971C2.22743 14.3906 2.08745 14.3535 1.96434 14.282C1.84124 14.2105 1.73953 14.1072 1.66982 13.9828C1.60001 13.8616 1.56326 13.7241 1.56326 13.5842C1.56326 13.4442 1.60001 13.3068 1.66982 13.1856L8.03249 2.02394C8.09923 1.89335 8.20063 1.78376 8.32552 1.70723C8.45041 1.6307 8.59395 1.5902 8.74033 1.5902C8.88671 1.5902 9.03025 1.6307 9.15514 1.70723C9.28003 1.78376 9.38144 1.89335 9.44818 2.02394L15.8506 13.1856C15.9295 13.305 15.9749 13.4436 15.9819 13.5867C15.9889 13.7298 15.9573 13.8721 15.8904 13.9988V13.9828ZM8.7801 4.83827C8.56916 4.83827 8.36687 4.92226 8.21771 5.07178C8.06856 5.22129 7.98476 5.42408 7.98476 5.63553V8.82456C7.98476 9.03601 8.06856 9.23879 8.21771 9.38831C8.36687 9.53782 8.56916 9.62182 8.7801 9.62182C8.99103 9.62182 9.19333 9.53782 9.34248 9.38831C9.49164 9.23879 9.57543 9.03601 9.57543 8.82456V5.63553C9.57543 5.42408 9.49164 5.22129 9.34248 5.07178C9.19333 4.92226 8.99103 4.83827 8.7801 4.83827Z" fill="#830000"/>
</svg>
