<svg width="14" height="15" viewBox="0 0 14 15" fill="none" xmlns="http://www.w3.org/2000/svg">
<path d="M13.3 8.9C13.1143 8.9 12.9363 8.97375 12.805 9.10503C12.6737 9.2363 12.6 9.41435 12.6 9.6V12.4C12.6 12.5857 12.5263 12.7637 12.395 12.895C12.2637 13.0263 12.0857 13.1 11.9 13.1H2.1C1.91435 13.1 1.7363 13.0263 1.60503 12.895C1.47375 12.7637 1.4 12.5857 1.4 12.4V9.6C1.4 9.41435 1.32625 9.2363 1.19497 9.10503C1.0637 8.97375 0.885652 8.9 0.7 8.9C0.514348 8.9 0.336301 8.97375 0.205025 9.10503C0.0737498 9.2363 0 9.41435 0 9.6V12.4C0 12.957 0.221249 13.4911 0.615076 13.8849C1.0089 14.2788 1.54305 14.5 2.1 14.5H11.9C12.457 14.5 12.9911 14.2788 13.3849 13.8849C13.7788 13.4911 14 12.957 14 12.4V9.6C14 9.41435 13.9263 9.2363 13.795 9.10503C13.6637 8.97375 13.4857 8.9 13.3 8.9ZM6.503 10.097C6.56957 10.1607 6.64807 10.2107 6.734 10.244C6.81779 10.281 6.90839 10.3002 7 10.3002C7.09161 10.3002 7.18221 10.281 7.266 10.244C7.35193 10.2107 7.43043 10.1607 7.497 10.097L10.297 7.297C10.4288 7.16519 10.5029 6.98641 10.5029 6.8C10.5029 6.61359 10.4288 6.43481 10.297 6.303C10.1652 6.17119 9.98641 6.09714 9.8 6.09714C9.61359 6.09714 9.43481 6.17119 9.303 6.303L7.7 7.913V1.2C7.7 1.01435 7.62625 0.836301 7.49497 0.705025C7.3637 0.57375 7.18565 0.5 7 0.5C6.81435 0.5 6.6363 0.57375 6.50503 0.705025C6.37375 0.836301 6.3 1.01435 6.3 1.2V7.913L4.697 6.303C4.63173 6.23773 4.55425 6.18596 4.46897 6.15064C4.3837 6.11532 4.2923 6.09714 4.2 6.09714C4.1077 6.09714 4.0163 6.11532 3.93103 6.15064C3.84575 6.18596 3.76827 6.23773 3.703 6.303C3.63773 6.36827 3.58596 6.44575 3.55064 6.53102C3.51532 6.6163 3.49714 6.7077 3.49714 6.8C3.49714 6.8923 3.51532 6.9837 3.55064 7.06897C3.58596 7.15425 3.63773 7.23173 3.703 7.297L6.503 10.097Z" fill="white"/>
</svg>
