<svg width="20" height="20" viewBox="0 0 20 20" fill="none" xmlns="http://www.w3.org/2000/svg">
<path opacity="0.4" d="M16.4166 8.41575C16.1164 8.41575 15.8719 8.17005 15.8679 7.86428V7.05944C15.8776 6.37627 15.62 5.71724 15.1519 5.22786C14.6838 4.73848 14.0437 4.45901 13.373 4.45116H12.7877C12.4846 4.45116 12.2389 4.20093 12.2389 3.89225C12.2389 3.58357 12.4846 3.33333 12.7877 3.33333H13.373C15.3762 3.35782 16.9874 5.0189 16.9873 7.05944V7.85683C16.9912 8.00367 16.9367 8.14591 16.8361 8.25117C16.7355 8.35644 16.5974 8.4158 16.4532 8.41575H16.4166ZM3.61296 8.4158C3.4681 8.41774 3.32851 8.36052 3.22539 8.25688C3.12226 8.15325 3.06422 8.01184 3.06423 7.86428V7.05944C3.0525 6.07535 3.4281 5.12744 4.10718 4.42735C4.78627 3.72725 5.71229 3.33326 6.67851 3.33333H7.27845C7.58151 3.33333 7.82718 3.58357 7.82718 3.89225C7.82718 4.20093 7.58151 4.45116 7.27845 4.45116H6.68583C6.00938 4.44906 5.36058 4.72439 4.88571 5.21509C4.41084 5.70579 4.14988 6.37053 4.16169 7.05944V7.86428C4.15768 8.17005 3.91318 8.4158 3.61296 8.4158Z" fill="white"/>
<path d="M16.9653 11.7171V13.8112C16.9418 15.8257 15.3506 17.4564 13.3729 17.4925H12.7803C12.5705 17.5173 12.3653 17.4173 12.2527 17.2352C12.1402 17.0532 12.1402 16.8215 12.2527 16.6395C12.3653 16.4574 12.5705 16.3574 12.7803 16.3822H13.3729C14.7682 16.3781 15.8971 15.2248 15.8971 13.8037V11.7171H16.9653ZM7.82712 16.9411C7.82318 17.2481 7.5798 17.496 7.2784 17.5H6.67845C4.67526 17.4755 3.06403 15.8144 3.06417 13.7739V11.7171H4.16163V13.8112C4.1616 15.2294 5.28608 16.3814 6.67845 16.3896H7.2784C7.42325 16.3876 7.56285 16.4448 7.66597 16.5485C7.76909 16.6521 7.82712 16.7935 7.82712 16.9411ZM18.3334 11.1582C18.3334 11.4668 18.0877 11.7171 17.7847 11.7171H2.21548C1.91242 11.7171 1.66675 11.4668 1.66675 11.1582C1.66675 10.8495 1.91242 10.5992 2.21548 10.5992H17.7627C17.912 10.5932 18.0573 10.6493 18.165 10.7548C18.2727 10.8603 18.3334 11.006 18.3334 11.1582Z" fill="white"/>
<path opacity="0.4" d="M13.8119 9.25039V8.28906C13.8119 7.82459 13.6307 7.37915 13.3083 7.05072C12.9859 6.72229 12.5485 6.53778 12.0925 6.53778H7.90758C6.95801 6.53778 6.18823 7.32186 6.18823 8.28906V9.25039C6.19202 9.364 6.28156 9.4552 6.39309 9.45905H13.607C13.7186 9.4552 13.8081 9.364 13.8119 9.25039Z" fill="white"/>
<path d="M13.8119 11.7171V12.5517C13.8119 13.5189 13.0421 14.303 12.0925 14.303H7.90758C6.95801 14.303 6.18823 13.5189 6.18823 12.5517V11.7171H13.8119Z" fill="white"/>
</svg>
