<svg width="20" height="20" viewBox="0 0 20 20" fill="none" xmlns="http://www.w3.org/2000/svg">
<path d="M14.3687 5.66875C13.1812 3.70625 11.0625 2.5 8.75 2.5C5.13125 2.5 2.1875 5.44375 2.1875 9.0625C2.1875 10.7188 2.80625 12.3 3.93125 13.5187C4.1625 13.7687 4.5625 13.7875 4.8125 13.55C5.06875 13.3125 5.08125 12.9188 4.84375 12.6688C3.93125 11.6875 3.43125 10.4062 3.43125 9.0625C3.43125 6.13125 5.8125 3.75 8.74375 3.75C10.7063 3.75 12.5 4.825 13.425 6.55625C13.5312 6.75 13.725 6.875 13.9437 6.8875C15.9312 6.99375 17.4937 8.6375 17.4937 10.625C17.4937 12.6125 15.8125 14.375 13.7437 14.375C13.4 14.375 13.1187 14.6562 13.1187 15C13.1187 15.3438 13.4 15.625 13.7437 15.625C16.5 15.625 18.7437 13.3813 18.7437 10.625C18.7437 8.0875 16.8438 5.975 14.3625 5.66875H14.3687Z" fill="#79B7FF"/>
<path d="M9.75007 10.75C9.52507 10.5812 9.22506 10.5812 9.00006 10.75L6.50006 12.625C6.22506 12.8312 6.16881 13.225 6.37506 13.5C6.58131 13.775 6.97507 13.8312 7.25007 13.625L8.75007 12.5V16.875C8.75007 17.2187 9.03131 17.5 9.37506 17.5C9.71881 17.5 10.0001 17.2187 10.0001 16.875V12.5L11.5001 13.625C11.6126 13.7125 11.7438 13.75 11.8751 13.75C12.0626 13.75 12.2501 13.6625 12.3751 13.5C12.5813 13.225 12.5251 12.8312 12.2501 12.625L9.75007 10.75Z" fill="white"/>
</svg>
